<svg xmlns="http://www.w3.org/2000/svg" width="200" height="200"><path style="stroke:none;fill-rule:nonzero;fill:#272727;fill-opacity:1" d="M101 3C47.98 3 5 45.98 5 99s42.98 96 96 96 96-42.98 96-96-42.98-96-96-96Zm51.691 128.406a3.003 3.003 0 0 1 4.137-.945 2.995 2.995 0 0 1 .945 4.133C145.418 154.262 124.195 166 101 166a3 3 0 0 1 0-6c21.117 0 40.445-10.691 51.691-28.594ZM32.895 60c-.54 0-1.083-.145-1.575-.45a3 3 0 0 1-.976-4.128C45.602 30.738 72.016 16 101 16a3 3 0 0 1 0 6c-26.89 0-51.395 13.676-65.547 36.578A3.009 3.009 0 0 1 32.895 60Zm16.41 6.594A2.995 2.995 0 0 1 46.762 68a3.017 3.017 0 0 1-1.594-.457 3.007 3.007 0 0 1-.945-4.137C56.578 43.738 77.805 32 101 32a3 3 0 0 1 0 6c-21.121 0-40.45 10.691-51.695 28.594ZM63 99c0-20.984 17.016-38 38-38s38 17.016 38 38-17.016 38-38 38-38-17.016-38-38Zm38 83a3 3 0 0 1 0-6c26.89 0 51.39-13.672 65.547-36.578a3.003 3.003 0 0 1 4.129-.973 3 3 0 0 1 .976 4.13C156.398 167.261 129.984 182 101 182Zm8-83a8 8 0 1 0-16 0 8 8 0 0 0 16 0Zm0 0"/></svg>